<?xml version="1.0" encoding="UTF-8" standalone="no"?>
<!-- Generator: Adobe Illustrator 19.0.0, SVG Export Plug-In . SVG Version: 6.00 Build 0)  -->

<svg
   xmlns:dc="http://purl.org/dc/elements/1.1/"
   xmlns:cc="http://creativecommons.org/ns#"
   xmlns:rdf="http://www.w3.org/1999/02/22-rdf-syntax-ns#"
   xmlns:svg="http://www.w3.org/2000/svg"
   xmlns="http://www.w3.org/2000/svg"
   xmlns:sodipodi="http://sodipodi.sourceforge.net/DTD/sodipodi-0.dtd"
   xmlns:inkscape="http://www.inkscape.org/namespaces/inkscape"
   version="1.1"
   id="Capa_1"
   x="0px"
   y="0px"
   viewBox="0 0 58 58"
   style="enable-background:new 0 0 58 58;"
   xml:space="preserve"
   width="512px"
   height="512px"
   sodipodi:docname="image.svg"
   inkscape:version="0.92.3 (2405546, 2018-03-11)"><metadata
   id="metadata45"><rdf:RDF><cc:Work
       rdf:about=""><dc:format>image/svg+xml</dc:format><dc:type
         rdf:resource="http://purl.org/dc/dcmitype/StillImage" /><dc:title></dc:title></cc:Work></rdf:RDF></metadata><defs
   id="defs43" /><sodipodi:namedview
   pagecolor="#ffffff"
   bordercolor="#666666"
   borderopacity="1"
   objecttolerance="10"
   gridtolerance="10"
   guidetolerance="10"
   inkscape:pageopacity="0"
   inkscape:pageshadow="2"
   inkscape:window-width="1366"
   inkscape:window-height="713"
   id="namedview41"
   showgrid="false"
   inkscape:zoom="0.65186406"
   inkscape:cx="225.04498"
   inkscape:cy="263.33382"
   inkscape:window-x="0"
   inkscape:window-y="27"
   inkscape:window-maximized="1"
   inkscape:current-layer="g8" />
<g
   id="g8"
   style="fill:#000000"
   transform="matrix(0.92257954,0,0,0.92257954,2.8616698,2.2845156)">
	
	
	
<rect
   style="fill:#e6e6e6;stroke:none;stroke-width:0.10976299"
   id="rect1022"
   width="64.144073"
   height="33.669491"
   x="-3.4406774"
   y="11.550847" /><path
   d="m 8.1116984,22.5032 c 1.9693506,0 3.5712526,-1.601901 3.5712526,-3.570611 0,-1.969992 -1.601902,-3.571893 -3.5712526,-3.571893 -1.9693513,0 -3.5712527,1.601901 -3.5712527,3.571252 0,1.969351 1.6019014,3.571252 3.5712527,3.571252 z m 0,-5.859957 c 1.2620262,0 2.2887046,1.02732 2.2887046,2.288705 0,1.261385 -1.0266784,2.288705 -2.2887046,2.288705 -1.262027,0 -2.2887052,-1.026679 -2.2887052,-2.288064 0,-1.261385 1.0266782,-2.289346 2.2887052,-2.289346 z"
   id="path4"
   inkscape:connector-curvature="0"
   style="fill:#b3b3b3;stroke-width:0.6412735" /><path
   d="m 1.1114228,34.940678 c 0.1500579,0 0.3013985,-0.05258 0.4232405,-0.159677 l 10.4610957,-9.209971 6.606399,6.605759 c 0.250738,0.250738 0.656023,0.250738 0.906761,0 0.250738,-0.250738 0.250738,-0.656023 0,-0.906761 l -3.082602,-3.082601 5.887532,-6.447365 7.221381,6.619867 c 0.260999,0.239195 0.666925,0.221239 0.906119,-0.03976 0.239196,-0.260999 0.221881,-0.666925 -0.03976,-0.90612 L 22.706306,20.36004 c -0.12569,-0.114788 -0.293062,-0.171861 -0.461717,-0.168014 -0.169938,0.0077 -0.330256,0.08272 -0.445043,0.208414 l -6.280633,6.878942 -3.041561,-3.041561 C 12.23752,23.99863 11.854039,23.986447 11.600094,24.209611 L 0.68754096,33.817808 c -0.26612849,0.234065 -0.29177945,0.63935 -0.0577148,0.905478 0.12697211,0.144286 0.30396362,0.217392 0.48159664,0.217392 z"
   id="path6"
   inkscape:connector-curvature="0"
   style="fill:#b3b3b3;stroke-width:0.6412735" /></g>
<g
   id="g10">
</g>
<g
   id="g12">
</g>
<g
   id="g14">
</g>
<g
   id="g16">
</g>
<g
   id="g18">
</g>
<g
   id="g20">
</g>
<g
   id="g22">
</g>
<g
   id="g24">
</g>
<g
   id="g26">
</g>
<g
   id="g28">
</g>
<g
   id="g30">
</g>
<g
   id="g32">
</g>
<g
   id="g34">
</g>
<g
   id="g36">
</g>
<g
   id="g38">
</g>
<g
   id="surface1"
   transform="matrix(0.05567439,0,0,0.05567439,23.134037,28.039315)"
   style="fill:#b3b3b3"><path
     d="m 240,86.890625 h 38.39844 V 106.09375 H 240 Z m 0,0"
     style="fill:#b3b3b3;fill-opacity:1;fill-rule:nonzero;stroke:none"
     id="path2-8"
     inkscape:connector-curvature="0" /><path
     d="M 567.76172,58.1875 502.55078,48.875 C 490.66016,41.570312 478.32031,35.03125 465.59766,29.292969 423.58203,10.261719 377.98047,0.441406 331.85156,0.492188 H 320.52344 C 266.08594,0.53125 212.51953,14.191406 164.70703,40.226562 L 131.79687,58.179688 C 93.273438,58.613281 55.492188,68.859375 22.023438,87.9375 8.421875,95.738281 0.0234375,110.21094 0,125.88672 v 57.0039 c 0,5.30469 4.296875,9.60157 9.601562,9.60157 h 32.234376 c 10.484374,29.91015 43.230468,45.66015 73.140622,35.17578 16.46485,-5.76953 29.40625,-18.71485 35.17578,-35.17578 h 256.48438 c 10.48437,29.91015 43.23047,45.66015 73.14062,35.17578 16.46094,-5.76953 29.40625,-18.71485 35.17578,-35.17578 h 3.44532 c 1.22265,0 2.43359,-0.23047 3.57031,-0.6836 l 31.09375,-12.47656 c 13.89062,-5.5 22.98828,-18.94531 22.9375,-33.87891 V 67.691406 c 0,-4.773437 -3.51172,-8.824218 -8.23828,-9.503906 z M 133.62109,180.97266 C 129.375,201.75 109.08984,215.15234 88.3125,210.90625 67.53125,206.66016 54.128906,186.375 58.375,165.59375 c 4.25,-20.77734 24.535156,-34.17969 45.3125,-29.93359 17.87891,3.65234 30.71484,19.38281 30.71094,37.63281 0,2.57812 -0.26172,5.15234 -0.77735,7.67969 z m 173.57813,-7.67969 H 153.59766 c 0,-31.8125 -25.78516,-57.60156 -57.59766,-57.60156 -31.8125,0 -57.601562,25.78906 -57.601562,57.60156 H 19.199219 v -47.40625 c 0.01172,-8.79297 4.722656,-16.91406 12.355469,-21.28125 C 62.882812,86.71875 98.328125,77.304688 134.39844,77.292969 h 172.80078 z m 0,-115.19922 H 172.05078 l 1.85156,-1.011719 c 41.04297,-22.304687 86.63282,-34.949219 133.29688,-36.96875 z m 19.19922,-38.402344 h 5.43359 c 38.6875,-0.04297 77.02344,7.300782 112.95703,21.640625 L 428.02734,58.09375 H 326.39844 Z M 498.42187,180.97266 c -4.24609,20.77734 -24.53125,34.17968 -45.3125,29.93359 -20.77734,-4.24609 -34.17968,-24.53125 -29.93359,-45.3125 4.24609,-20.77734 24.53516,-34.17969 45.3125,-29.93359 17.87891,3.65234 30.71484,19.38281 30.71094,37.63281 0,2.57812 -0.26172,5.15234 -0.77735,7.67969 z M 556.80078,86.890625 H 528 v 19.203125 h 28.80078 v 39.35937 c 0.0234,7.07422 -4.28906,13.44141 -10.86719,16.03907 l -27.53515,11.05859 c 0,-0.88281 -0.11328,-1.75781 -0.17188,-2.64062 -0.0586,-0.88282 -0.0781,-1.91797 -0.17187,-2.87891 -0.0977,-0.96094 -0.28907,-1.92188 -0.44141,-2.87891 -0.15625,-0.96093 -0.26953,-1.92187 -0.46094,-2.79297 -0.1914,-0.875 -0.47265,-1.84375 -0.72265,-2.75781 -0.25,-0.91015 -0.44141,-1.83203 -0.73047,-2.72656 -0.28516,-0.89063 -0.63281,-1.74609 -0.95703,-2.62109 -0.32813,-0.8711 -0.625,-1.77344 -0.96094,-2.64063 -0.33594,-0.86328 -0.78906,-1.64844 -1.19141,-2.46484 -0.40234,-0.81641 -0.79687,-1.71094 -1.24609,-2.53516 -0.45313,-0.82422 -0.96094,-1.52734 -1.39453,-2.29297 -0.42969,-0.76953 -0.95703,-1.64453 -1.50391,-2.42969 -0.55078,-0.78906 -1.05859,-1.41015 -1.58594,-2.12109 -0.52734,-0.71094 -1.125,-1.54687 -1.73828,-2.28516 -0.61328,-0.73828 -1.1875,-1.3164 -1.78515,-1.92187 -0.59375,-0.60156 -1.25782,-1.41797 -1.91797,-2.08984 -0.66406,-0.67188 -1.31641,-1.20313 -1.97656,-1.79688 -0.66407,-0.59375 -1.375,-1.29687 -2.10547,-1.92187 -0.72657,-0.6211 -1.46875,-1.10157 -2.19532,-1.64844 -0.73046,-0.54688 -1.46093,-1.13281 -2.22656,-1.64453 -0.76953,-0.50781 -1.63281,-0.95703 -2.45703,-1.4961 -0.82812,-0.53906 -1.5,-0.96093 -2.27734,-1.37109 -0.77735,-0.41406 -1.7461,-0.84766 -2.62891,-1.26953 -0.88281,-0.42188 -1.57422,-0.79688 -2.39062,-1.14063 -0.81641,-0.34765 -1.92188,-0.71093 -2.87891,-1.05468 -0.96094,-0.34766 -1.58594,-0.61719 -2.40234,-0.875 -1.09375,-0.33594 -2.21485,-0.57813 -3.33204,-0.85547 -0.73046,-0.17188 -1.42968,-0.40235 -2.16796,-0.55469 -1.17969,-0.24219 -2.39063,-0.375 -3.58985,-0.55078 -0.71094,-0.0937 -1.39062,-0.25 -2.10156,-0.31641 -1.92188,-0.1914 -3.83984,-0.29687 -5.85547,-0.29687 -31.80078,0.0312 -57.57031,25.80078 -57.60156,57.60156 H 326.40234 V 77.289062 H 432 c 2.54687,0 4.98828,-1.011718 6.78516,-2.8125 l 24.89453,-24.894531 c 10.44922,4.972657 20.60937,10.53125 30.43359,16.648438 1.13281,0.707031 2.39844,1.171875 3.72266,1.363281 l 58.96484,8.417969 z m 0,0"
     style="fill:#b3b3b3;fill-opacity:1;fill-rule:nonzero;stroke:none"
     id="path4-4"
     inkscape:connector-curvature="0" /></g></svg>