<?xml version="1.0" encoding="UTF-8" standalone="no"?>
<svg
   xmlns:svg="http://www.w3.org/2000/svg"
   xmlns="http://www.w3.org/2000/svg"
   height="512px"
   width="512px"
   xml:space="preserve"
   style="enable-background:new 0 0 58 58;"
   viewBox="0 0 58 58"
   y="0px"
   x="0px"
   id="Capa_1"
   version="1.1">
<g
   transform="matrix(0.92257954,0,0,0.92257954,4.0492815,-0.56575267)"
   style="fill:#000000"
   id="g8">

<rect
   y="5.6293917"
   x="-3.8268592"
   height="45.340767"
   width="64.144073"
   id="rect1022"
   style="fill:#e6e6e6;stroke:none;stroke-width:0.12737438" /><path
   style="fill:#b3b3b3;stroke-width:0.6412735"
   id="path6"
   d="m 1.1114228,34.940678 c 0.1500579,0 0.3013985,-0.05258 0.4232405,-0.159677 l 10.4610957,-9.209971 6.606399,6.605759 c 0.250738,0.250738 0.656023,0.250738 0.906761,0 0.250738,-0.250738 0.250738,-0.656023 0,-0.906761 l -3.082602,-3.082601 5.887532,-6.447365 7.221381,6.619867 c 0.260999,0.239195 0.666925,0.221239 0.906119,-0.03976 0.239196,-0.260999 0.221881,-0.666925 -0.03976,-0.90612 L 22.706306,20.36004 c -0.12569,-0.114788 -0.293062,-0.171861 -0.461717,-0.168014 -0.169938,0.0077 -0.330256,0.08272 -0.445043,0.208414 l -6.280633,6.878942 -3.041561,-3.041561 C 12.23752,23.99863 11.854039,23.986447 11.600094,24.209611 L 0.68754096,33.817808 c -0.26612849,0.234065 -0.29177945,0.63935 -0.0577148,0.905478 0.12697211,0.144286 0.30396362,0.217392 0.48159664,0.217392 z" /><circle
   id="circle4"
   stroke-miterlimit="10"
   r="4.0116272"
   cy="18.956127"
   cx="5.0873265"
   style="fill:#ffffff;stroke:#ffce45;stroke-width:0.1337209;stroke-miterlimit:10" /><path
   id="path6-3"
   d="M 5.0873511,15.816375 8.1603864,18.889398 5.0873511,21.962446 2.0143143,18.889398 Z"
   style="fill:#ffce45;stroke-width:0.01298261" /><path
   id="path8"
   d="m 5.0873257,19.892177 -3.075583,-1.00291 3.075583,-3.072982 3.0755794,3.072982 z"
   style="fill:#febe44;stroke-width:0.01298261" /><path
   id="path10"
   d="M 3.0815112,18.688685 H 4.4855803 L 5.0873257,18.02008 5.7559269,18.688685 H 7.1599997 L 5.0873257,16.448926 Z"
   style="fill:#ffffff;stroke-width:0.01298261" /><path
   id="path12"
   d="m 5.0873257,21.962253 v -6.145968 l 3.0729827,3.072982 z"
   style="opacity:0.42000002;fill:#d9a547;stroke-width:0.01298261" /></g>
<path
   id="path8-2"
   d="m 11.757359,20.048286 v 0 l 0.184032,-0.229787 1.648852,1.647459 z"
   style="fill:#febe44;stroke-width:0.00696012" /><path
   id="path8-2-2"
   d="m 13.196274,16.434219 v 0 l -0.0066,-0.294324 2.321954,0.203371 z"
   style="fill:#febe44;stroke-width:0.00696012" /><path
   id="path8-2-0"
   d="m 12.845926,18.392337 v 0 l 0.138943,-0.259547 1.922137,1.318416 z"
   style="fill:#febe44;stroke-width:0.00696012" /><path
   id="path8-2-0-5"
   d="m 10.275375,21.106072 v 0 l 0.243035,-0.166144 1.096849,2.056636 z"
   style="fill:#febe44;stroke-width:0.00696012" /><g
   style="fill:#000000"
   id="g14"
   transform="matrix(0.01861895,0,0,0.01861895,19.001794,24.522859)"><path
     id="path2"
     d="m 1058.6489,314.86976 c -33.7924,-0.17218 -67.5761,0.89547 -101.29232,3.36297 -40.97003,2.89997 -81.71768,8.51592 -122.08787,16.06604 -48.36001,8.85998 -96.24253,20.33112 -143.38248,34.27109 -82.02001,24.07004 -161.346,56.21464 -240.07604,89.2546 -3.20996,1.36 -5.94334,3.83754 -9.42337,4.52755 -8.41,0.45997 -13.21316,-10.31368 -21.85314,-7.97364 -65.51001,12.46998 -130.35075,28.85611 -193.41078,50.64615 -41.77996,14.62998 -82.94803,31.5556 -121.45804,53.54563 -29.879944,17.17999 -58.593188,37.4979 -80.853175,64.09786 -1.710023,2.04003 -3.740804,4.53139 -2.970789,7.39138 7.990003,20.75001 22.385808,38.16917 37.455802,54.19919 1.190006,1.26004 2.350566,2.94895 1.770621,4.78893 -0.920052,2.47998 -2.786681,4.45649 -4.206671,6.66645 -5.010027,7.53004 -9.73939,15.24455 -14.509396,22.9346 -6.139983,-0.89006 -13.06647,-1.33657 -18.466433,2.29344 -5.10999,3.44998 -5.608772,11.63765 -0.93879,15.6977 5.520004,4.89996 13.000821,7.3424 20.260843,8.0924 79.719998,1.32002 159.442858,2.68714 239.172898,3.95715 3.81996,0.48978 2.91232,-4.13743 1.59229,-6.16742 -17.29997,-32.00996 -20.97068,-70.24777 -13.76067,-105.61772 0.36992,-1.96003 1.94846,-3.282 3.20843,-4.68197 0.31577,0.54758 0.56279,1.10537 0.78432,1.67552 -0.0122,-29.06053 8.29299,-58.13621 24.41993,-82.39801 17.74996,-27.05999 44.53926,-48.12486 75.14925,-58.71482 11.57998,-4.07002 23.65546,-6.65915 35.87532,-7.81916 38.17994,-3.55998 77.57647,8.08851 107.37648,32.29854 27.52001,21.99995 46.68077,54.09734 53.01088,88.76737 2.45358,12.90956 3.08007,26.13623 2.04393,39.22643 0.0913,-0.0767 0.16488,-0.16489 0.26162,-0.2379 1.30999,2.54003 2.11535,5.31564 2.3053,8.17564 0.64991,9.72989 3.32793,19.24253 3.26788,29.04252 0.0998,8.75989 -1.75395,17.47203 -4.88396,25.63202 -4.32002,12.1 -8.02962,24.40978 -11.2296,36.84976 -7.97004,4.3 -15.91466,8.67326 -23.94463,12.89325 66.81999,-2.14997 133.61559,-5.09977 200.44556,-6.93975 223.73012,-6.82999 447.4661,-13.65663 671.1861,-20.48663 3.0299,0.18983 2.7353,-3.49439 2.1152,-5.45435 -2.9899,-9.61004 -6.3965,-19.09225 -9.5065,-28.66226 1.44,-2.77001 5.4051,-0.11621 7.2249,-1.99641 -1.0099,-5.38 -3.8791,-10.23695 -5.1691,-15.56695 -6.5499,-21.99003 -9.442,-45.56511 -4.8721,-68.24515 3.6801,-19.89007 9.9283,-39.4774 20.1182,-57.02737 14.36,-25.22 36.8269,-45.2721 62.5769,-58.38213 18.86,-9.52997 39.1466,-17.04845 60.3666,-18.66849 37.77,-3.16001 75.661,9.99474 105.891,32.27475 23.61,17.54997 43.6801,40.99437 53.7002,68.93437 4.5999,12.40001 5.6672,25.69104 6.7971,38.75106 1.46,20.89001 1.8416,42.36003 -4.0284,62.66005 -1.0601,4.45996 -3.8117,8.22924 -5.3117,12.48921 -0.8201,2.35999 1.7919,3.85482 3.862,3.37484 3.07,0.1302 6.7258,-1.8109 9.3758,0.4989 0.97,3.65003 -1.6831,6.81448 -2.7331,10.12446 0.049,1.63993 2.0467,2.05828 3.3867,2.00827 6.6901,-0.36019 13.4388,-0.36688 20.0588,-1.5567 17.53,-2.86 34.0026,-10.68281 48.1626,-21.28281 13.37,-9.87999 24.807,-22.13678 34.8771,-35.31678 23.6399,-3.49999 47.3219,-6.72814 71.002,-9.95812 2.5299,-0.0426 3.8845,-2.6715 3.8146,-4.93154 0.25,-10.32998 0.1405,-20.66136 -0.061,-30.99135 0.012,-5.91998 4.5222,-9.99176 8.7223,-13.45178 6.97,-5.85999 8.9786,-15.24516 9.7086,-23.88519 -25.4101,-0.54028 -50.8445,0.15453 -76.2545,0.15453 -4.5499,-0.20016 -9.34,0.86621 -13.63,-1.03382 -9.97,-3.91998 -20.0231,-7.62477 -29.9932,-11.51482 -1.69,-0.61998 -3.639,-2.15289 -2.9588,-4.18288 10.75,-35.65999 21.4389,-71.3456 32.0489,-107.0556 1.0101,-4.01003 5.3462,-5.61766 8.9361,-6.54763 16.8901,-4.12003 33.8312,-8.02711 50.7413,-12.09707 1.7999,-0.3103 3.8032,-1.11323 5.5732,-0.0833 1.5801,0.61997 3.8525,2.36778 5.2523,0.42771 0.4198,-3.04002 -2.1879,-5.6516 -5.0979,-5.94163 -10.5899,-2.18995 -21.3633,-3.42236 -32.0133,-5.25237 -53.3499,-8.10998 -106.4556,-17.67865 -159.7456,-26.17863 -46.3199,-7.46998 -92.7001,-14.63035 -139.1403,-21.33032 -48.28,-6.90002 -96.625,-13.44825 -145.1649,-18.28823 -45.5501,-4.27 -91.1123,-8.4566 -136.6923,-12.34664 -14.4299,-4.33 -29.0318,-8.65714 -44.1817,-9.44711 -55.95,-6.33748 -112.278,-10.05163 -168.5986,-10.33838 z m -784.44476,319.0279 c -915.29634,720.19304 -457.64817,360.0965 0,0 z M 980.62387,350.67382 c 25.57223,-0.25858 51.15973,0.33098 76.68223,1.49726 3.3499,0.29022 9.5235,-0.16123 8.7936,4.97906 -2.5901,24.05002 -5.6908,48.07095 -8.2708,72.13095 -0.08,3.94 -4.0975,6.08759 -7.5577,6.54762 -29.0099,3.40003 -57.87479,7.88012 -86.79477,11.99011 -35.67003,5.23004 -71.33246,10.53235 -106.97243,16.04231 -42.76,6.63998 -85.36844,14.37859 -128.33841,19.67859 -13.9,1.61 -27.8426,3.23466 -41.8526,3.18465 -3.83998,-5.27999 -7.12015,-11.07944 -11.99012,-15.51944 -1.58,-1.67996 -3.87265,-3.29653 -3.80262,-5.84648 0.13021,-2.34004 2.43721,-3.58328 4.14723,-4.75327 5.36997,-3.17005 10.0495,-7.30979 14.69947,-11.41979 1.23004,-13.48999 2.64711,-26.97225 3.9571,-40.46224 -8.13998,0.36992 -16.3318,0.42772 -24.4318,1.24775 -12.68001,4.85999 -25.2017,10.17356 -37.87172,15.10351 -4.41001,1.44999 -6.4215,6.04879 -9.60165,9.07877 -2.14997,2.39 -5.49219,5.8157 -3.23216,9.18573 9.99998,13.65999 20.28457,27.11682 30.25455,40.80686 2.08,2.12995 1.21045,5.92648 -2.07957,5.84648 -15.68,0.50985 -31.36723,-1.16859 -46.86726,-3.39857 -26.50998,-4.11997 -52.70071,-10.04092 -79.07069,-14.96091 -2.94001,-0.65003 -6.31582,-0.73411 -8.36577,-3.24415 1.69999,-1.13999 3.4568,-2.25139 5.40684,-2.91134 6.99001,-2.32003 13.50325,-5.79355 20.21327,-8.79361 37.95999,-17.49996 76.29904,-34.31769 115.65907,-48.44774 24.59997,-8.81995 49.82727,-15.75702 74.94726,-22.88702 40.93997,-11.56995 82.86358,-19.22915 124.96356,-25.10916 42.16874,-6.35621 84.75546,-9.13547 127.37589,-9.56593 z m 247.94273,3.38671 c 2.51,0.0426 5.1009,0.29873 7.4507,1.31899 28.3101,11.41005 56.6347,22.79606 84.9648,34.17606 2.13,0.79003 3.9351,2.20698 5.5851,3.76696 -1.61,1.14 -3.3575,2.13348 -5.3474,2.29344 -32.54,4.47005 -65.0116,9.45739 -97.5016,14.3074 -1.8301,0.41981 -5.0512,-0.0426 -4.3611,-2.60245 2.98,-1.87996 6.5194,-2.50681 9.8393,-3.57684 15.8101,-4.91998 31.4461,-10.34945 47.1762,-15.51943 -14.69,-10.02997 -29.3373,-20.11574 -44.0272,-30.13573 -1.57,-1.02001 -2.7588,-2.49841 -3.7788,-4.0284 z m -120.0677,2.93513 c 0.619,-0.0663 1.2456,-0.0304 1.818,0.10708 13.35,1.42997 26.6119,3.59698 39.8919,5.59697 6.56,1.11 14.2864,1.172 19.0963,6.51197 11.01,13.75003 22.347,27.30458 32.0371,42.0546 -29.5301,5.52001 -59.2838,9.76878 -88.9338,14.56878 -1.9099,0.11986 -4.0433,1.07928 -5.7633,-0.13081 -2.2999,-1.70004 -2.3073,-4.8808 -2.3172,-7.45076 0.5999,-19.28999 0.3547,-38.59111 0.5348,-57.87112 -0.01,-2.055 1.779,-3.18794 3.6362,-3.38671 z m 81.6018,1.25961 c 1.55,0.25006 3.1705,0.61554 4.4205,1.67553 12.3701,9.18999 24.9,18.16265 37.2301,27.40265 -2.1201,4.70995 -6.5373,7.76622 -9.6373,11.77619 -2.9701,2.83 -5.0305,6.87782 -8.9005,8.56782 -1.88,-1.15003 -1.383,-3.48107 -0.713,-5.18111 1.6899,-4.12995 4.5507,-7.63925 6.4407,-11.66924 0.65,-1.49002 -0.3121,-2.92017 -1.4022,-3.8502 -7.91,-7.39995 -15.4779,-15.14251 -23.2079,-22.73248 -1.74,-1.74002 -3.8604,-3.38914 -4.2304,-5.98916 z m -57.4433,92.13035 c 4.4179,0.21478 8.7841,1.20954 13.119,2.07958 48.5,9.39995 97.039,18.69678 145.569,27.99677 2.61,0.57009 5.371,0.70564 7.831,1.86566 0.1704,1.59996 -0.5761,3.05925 -1.426,4.34922 -10.2201,14.53002 -19.7853,29.51618 -29.5653,44.33617 -19.0599,29.01003 -37.9986,58.08693 -56.9086,87.18694 -2.23,3.32003 -4.1687,7.43793 -8.2588,8.75789 -3.48,1 -7.1378,1.15783 -10.5879,2.25785 -19.9299,6.45989 -40.2053,11.77595 -60.2953,17.70591 -22.6001,6.50004 -45.2173,12.98841 -67.8173,19.48845 -3.5999,0.98996 -7.1527,2.40605 -10.9326,2.43605 -126.03001,5.94 -252.05734,11.89855 -378.08734,17.84852 -27.78997,1.21003 -55.58244,2.7983 -83.3724,3.83827 154.80999,-18.01997 309.62241,-35.97533 464.44244,-53.98533 9.29,-0.83998 18.641,-0.39364 27.9611,-0.65356 18.6502,-0.18009 37.3081,-0.4405 55.958,-0.57009 1.73,-0.0182 3.5659,-0.0426 5.086,-1.03383 9.87,-5.79999 19.7091,-11.67641 29.5891,-17.45639 1.54,-0.75 2.5336,-2.15624 3.3035,-3.63628 13.2,-24.09997 26.8019,-47.9809 39.8919,-72.13088 4.37,-9.76002 4.5966,-20.61574 6.6665,-30.95576 1.0999,-7.06995 3.051,-13.98323 4.1709,-21.03323 -0.08,-2.81996 -3.2062,-3.68459 -5.4662,-4.00461 -25.48,-3.88999 -50.9508,-7.8606 -76.4208,-11.74061 -11.5401,-1.55001 -23.1195,-4.64065 -34.8296,-2.78066 -163.68996,19.92999 -327.41019,39.68286 -491.12019,59.52286 -14.75003,1.59005 -29.4212,4.15709 -44.24114,4.77707 18.83003,-2.22998 37.5088,-5.62447 56.27877,-8.29446 165.01002,-25.39 330.02977,-50.73802 495.02976,-76.08804 1.4825,-0.13507 2.9598,-0.15454 4.4325,-0.0834 z m -915.86095,72.42804 c -31.51003,12.75995 -62.50892,27.56905 -90.03891,47.69908 -6.66,4.96002 -13.07992,10.27115 -18.92993,16.16114 -6.19997,0.55001 -12.417162,0.95625 -18.597179,1.80621 -2.669986,0.29022 -5.702286,0.92674 -7.90233,-1.09321 2.680025,-4.03004 6.599461,-6.91334 10.029424,-10.24334 23.940015,-22.2 54.018125,-36.9078 85.238115,-45.79778 13.18,-3.76003 26.63081,-6.60213 40.20081,-8.5321 z M 88.458043,626.30429 c 5.499987,0.43015 6.373068,7.11936 9.043116,10.84933 12.540001,19.06001 25.216051,38.0293 37.836061,57.03929 1.39,2.26003 3.38956,4.33109 3.90952,7.01112 0.4697,2.60999 -2.53851,3.50571 -4.21847,4.70569 -6.63001,3.66001 -12.88802,8.06904 -19.73803,11.28904 -10.18999,1.83 -20.607583,2.75535 -30.967561,2.30536 -3.639989,-0.22025 -8.284356,-0.46301 -9.934328,-4.37301 -2.620035,-6.12003 1.039362,-12.37695 2.709351,-18.21692 3.100017,-9.90002 5.874773,-21.41076 0.534801,-31.05079 -2.740016,-4.61997 -4.914627,-9.56283 -7.664621,-14.15287 -4.430021,-2.15009 -9.323232,-3.16682 -13.713219,-5.40683 -1.350021,-0.67 -2.398023,-2.32264 -1.628008,-3.80262 1.120039,-1.89998 3.219754,-2.88452 5.109808,-3.81449 4.61997,-2.01003 9.309664,-3.85196 14.069692,-5.50193 11.169966,22.74003 21.986685,45.64646 33.296645,68.31646 -9.33996,-23.47001 -18.891958,-46.85095 -28.281994,-70.30094 3.210019,-1.61 6.137306,-3.95588 9.637298,-4.89589 z"
     style="fill:#000000;stroke-width:1" /><path
     style="fill:#000000"
     id="path4"
     d="m 1864.95,424.77 c 4.13,-0.96 8.4501,-2.33 12.7201,-1.35 2.7699,0.63 3.6,4.11 2.33,6.41 -6.99,13.98 -13.23,28.33 -19.49,42.65 -15.34,0.19 -30.6801,0.31 -46.02,0.46 3.53,-12.3 7.02,-24.62 10.49,-36.94 13.2799,-3.89 26.5599,-7.81 39.9699,-11.23 z" /><path
     style="fill:#000000"
     id="path8-0"
     d="m 1811.99,480.51 c 13.33,0.08 26.66,0.22 40,0.36 2.01,0.16 4.29,-0.09 6.11,1.04 0.87,1.02 0.4,2.4 0.25,3.59 -2.02,9.01 -2.27,18.27 -2.6899,27.46 -0.36,11.99 -0.36,23.99 -0.16,35.99 -8.17,-0.11 -16.33,-0.28 -24.49,-0.34 -2.65,-0.05 -5.39,0.13 -7.83,-1.01 -9.2201,-3.77 -18.51,-7.35 -27.7101,-11.17 5.5901,-18.61 11.02,-37.28 16.52,-55.92 z" />
     </g></svg>
