<?xml version="1.0" encoding="UTF-8" standalone="no"?>
<!-- Generator: Adobe Illustrator 19.0.0, SVG Export Plug-In . SVG Version: 6.00 Build 0)  -->

<svg
   xmlns:dc="http://purl.org/dc/elements/1.1/"
   xmlns:cc="http://creativecommons.org/ns#"
   xmlns:rdf="http://www.w3.org/1999/02/22-rdf-syntax-ns#"
   xmlns:svg="http://www.w3.org/2000/svg"
   xmlns="http://www.w3.org/2000/svg"
   xmlns:sodipodi="http://sodipodi.sourceforge.net/DTD/sodipodi-0.dtd"
   xmlns:inkscape="http://www.inkscape.org/namespaces/inkscape"
   version="1.1"
   id="Capa_1"
   x="0px"
   y="0px"
   viewBox="0 0 58 58"
   style="enable-background:new 0 0 58 58;"
   xml:space="preserve"
   width="512px"
   height="512px"
   sodipodi:docname="image.svg"
   inkscape:version="0.92.3 (2405546, 2018-03-11)"><metadata
   id="metadata924"><rdf:RDF><cc:Work
       rdf:about=""><dc:format>image/svg+xml</dc:format><dc:type
         rdf:resource="http://purl.org/dc/dcmitype/StillImage" /><dc:title></dc:title></cc:Work></rdf:RDF></metadata><defs
   id="defs922" /><sodipodi:namedview
   pagecolor="#ffffff"
   bordercolor="#666666"
   borderopacity="1"
   objecttolerance="10"
   gridtolerance="10"
   guidetolerance="10"
   inkscape:pageopacity="0"
   inkscape:pageshadow="2"
   inkscape:window-width="1366"
   inkscape:window-height="713"
   id="namedview920"
   showgrid="false"
   showguides="false"
   inkscape:zoom="0.71539319"
   inkscape:cx="228.80028"
   inkscape:cy="329.88499"
   inkscape:window-x="0"
   inkscape:window-y="27"
   inkscape:window-maximized="1"
   inkscape:current-layer="Capa_1" />
<g
   id="g8"
   style="fill:#000000"
   transform="matrix(0.92257954,0,0,0.92257954,2.8616698,2.2845156)">



<rect
   style="fill:#e6e6e6;stroke:none;stroke-width:0.10976299"
   id="rect1022"
   width="64.144073"
   height="33.669491"
   x="-3.4835865"
   y="11.636665" /><path
   d="m 1.1114228,34.940678 c 0.1500579,0 0.3013985,-0.05258 0.4232405,-0.159677 l 10.4610957,-9.209971 6.606399,6.605759 c 0.250738,0.250738 0.656023,0.250738 0.906761,0 0.250738,-0.250738 0.250738,-0.656023 0,-0.906761 l -3.082602,-3.082601 5.887532,-6.447365 7.221381,6.619867 c 0.260999,0.239195 0.666925,0.221239 0.906119,-0.03976 0.239196,-0.260999 0.221881,-0.666925 -0.03976,-0.90612 L 22.706306,20.36004 c -0.12569,-0.114788 -0.293062,-0.171861 -0.461717,-0.168014 -0.169938,0.0077 -0.330256,0.08272 -0.445043,0.208414 l -6.280633,6.878942 -3.041561,-3.041561 C 12.23752,23.99863 11.854039,23.986447 11.600094,24.209611 L 0.68754096,33.817808 c -0.26612849,0.234065 -0.29177945,0.63935 -0.0577148,0.905478 0.12697211,0.144286 0.30396362,0.217392 0.48159664,0.217392 z"
   id="path6"
   inkscape:connector-curvature="0"
   style="fill:#b3b3b3;stroke-width:0.6412735" /><circle
   style="fill:#ffffff;stroke:#ffce45;stroke-width:0.1337209;stroke-miterlimit:10"
   cx="5.0873265"
   cy="18.956127"
   r="4.0116272"
   stroke-miterlimit="10"
   id="circle4" /><path
   inkscape:connector-curvature="0"
   style="fill:#ffce45;stroke-width:0.01298261"
   d="M 5.0873511,15.816375 8.1603864,18.889398 5.0873511,21.962446 2.0143143,18.889398 Z"
   id="path6-3" /><path
   inkscape:connector-curvature="0"
   style="fill:#febe44;stroke-width:0.01298261"
   d="m 5.0873257,19.892177 -3.075583,-1.00291 3.075583,-3.072982 3.0755794,3.072982 z"
   id="path8" /><path
   inkscape:connector-curvature="0"
   style="fill:#ffffff;stroke-width:0.01298261"
   d="M 3.0815112,18.688685 H 4.4855803 L 5.0873257,18.02008 5.7559269,18.688685 H 7.1599997 L 5.0873257,16.448926 Z"
   id="path10" /><path
   inkscape:connector-curvature="0"
   style="opacity:0.42000002;fill:#d9a547;stroke-width:0.01298261"
   d="m 5.0873257,21.962253 v -6.145968 l 3.0729827,3.072982 z"
   id="path12" /></g>
<path
   inkscape:connector-curvature="0"
   style="fill:#febe44;stroke-width:0.00696012"
   d="m 10.332225,23.017315 v 0 l 0.184032,-0.229787 1.648852,1.647459 z"
   id="path8-2"
   sodipodi:nodetypes="ccccc" /><path
   inkscape:connector-curvature="0"
   style="fill:#febe44;stroke-width:0.00696012"
   d="m 11.77114,19.403248 v 0 l -0.0066,-0.294324 2.321954,0.203371 z"
   id="path8-2-2"
   sodipodi:nodetypes="ccccc" /><path
   inkscape:connector-curvature="0"
   style="fill:#febe44;stroke-width:0.00696012"
   d="m 11.420792,21.361366 v 0 l 0.138943,-0.259547 1.922137,1.318416 z"
   id="path8-2-0"
   sodipodi:nodetypes="ccccc" /><path
   inkscape:connector-curvature="0"
   style="fill:#febe44;stroke-width:0.00696012"
   d="m 8.8502405,24.075101 v 0 l 0.2430353,-0.166144 1.0968492,2.056636 z"
   id="path8-2-0-5"
   sodipodi:nodetypes="ccccc"
   inkscape:transform-center-x="0.11876118"
   inkscape:transform-center-y="-0.35628353" /><g
   transform="matrix(0.01861895,0,0,0.01861895,20.457392,26.083635)"
   id="g14"
   style="fill:#808080"><path
     inkscape:connector-curvature="0"
     d="m 953.03,309.02 c 89.9099,-6.58 180.37,-3.16 269.89,6.98 15.1499,0.79 29.76,5.12 44.1899,9.45 45.58,3.89 91.14,8.07 136.6901,12.34 48.5399,4.84 96.8899,11.39 145.1699,18.29 46.4401,6.7 92.8101,13.86 139.13,21.33 53.29,8.5 106.4,18.07 159.75,26.18 10.65,1.83 21.42,3.06 32.01,5.25 2.91,0.29 5.52,2.91 5.1,5.95 -1.3999,1.94 -3.6699,0.19 -5.25,-0.43 -1.77,-1.03 -3.77,-0.23 -5.5699,0.08 -16.91,4.07 -33.86,7.98 -50.75,12.1 -3.59,0.93 -7.92,2.53 -8.9301,6.54 -10.61,35.71 -21.2999,71.4 -32.0499,107.06 -0.6801,2.03 1.27,3.56 2.96,4.18 9.97,3.89 20.02,7.6 29.99,11.52 4.29,1.9 9.08,0.83 13.63,1.03 25.41,0 50.84,-0.69 76.25,-0.15 -0.73,8.64 -2.73,18.02 -9.7,23.88 -4.2001,3.46 -8.7101,7.53 -8.7201,13.45 0.2001,10.33 0.3,20.67 0.05,31 0.07,2.26 -1.28,4.89 -3.8099,4.93 -23.6801,3.23 -47.3601,6.46 -71,9.96 -10.0701,13.18 -21.51,25.43 -34.88,35.31 -14.16,10.6 -30.63,18.42 -48.16,21.28 -6.62,1.1899 -13.37,1.2 -20.0601,1.56 -1.34,0.05 -3.34,-0.3701 -3.39,-2.01 1.05,-3.31 3.7001,-6.47 2.7301,-10.12 -2.65,-2.31 -6.3,-0.37 -9.37,-0.5 -2.0701,0.48 -4.6801,-1.02 -3.8601,-3.38 1.5,-4.26 4.25,-8.03 5.3101,-12.49 5.87,-20.3 5.49,-41.77 4.03,-62.66 -1.13,-13.06 -2.2001,-26.34 -6.8,-38.74 -10.02,-27.94 -30.09,-51.39 -53.7,-68.94 -30.23,-22.28 -68.12,-35.43 -105.89,-32.27 -21.22,1.62 -41.51,9.13 -60.37,18.66 -25.75,13.11 -48.2101,33.17 -62.5701,58.39 -10.1899,17.55 -16.4399,37.1299 -20.12,57.02 -4.5699,22.68 -1.6799,46.26 4.87,68.25 1.29,5.33 4.16,10.18 5.17,15.56 -1.8199,1.88 -5.79,-0.77 -7.23,2 3.11,9.57 6.52,19.05 9.51,28.66 0.62,1.96 0.9199,5.65 -2.11,5.46 -223.7201,6.83 -447.46,13.65 -671.1901,20.48 -66.83,1.84 -133.62,4.8 -200.44,6.95 8.03,-4.22 15.97,-8.6 23.94,-12.9 3.2,-12.44 6.91,-24.75 11.23,-36.85 3.13,-8.16 4.98,-16.87 4.88,-25.6299 0.06,-9.8 -2.6201,-19.3101 -3.27,-29.04 -0.19,-2.86 -0.99,-5.64 -2.3,-8.18 -1.66,1.25 -2.57,3.12 -2.71,5.17 -3.84,36.19 -21.19,70.75 -47.61,95.73 -22.05,21.0099 -51.39,33.88 -81.67,36.63 -23.48,2.29 -47.32,-1.13 -69.68,-8.39 -27.28,-8.92 -51.77,-26.49 -68.15,-50.15 -15.32,-21.98 -24.47,-48.13 -26.91,-74.76 -0.8,-5.65 0.78,-11.88 -2.19,-17.03 -1.26,1.4 -2.84,2.73 -3.21,4.69 -7.21,35.37 -3.54,73.6 13.76,105.61 1.32,2.03 2.23,6.66 -1.59,6.17 -79.73,-1.27 -159.46,-2.64 -239.18,-3.96 -7.26,-0.75 -14.74,-3.19 -20.26,-8.09 -4.67,-4.06 -4.17,-12.25 0.94,-15.7 5.4,-3.63 12.33,-3.18 18.47,-2.29 4.77,-7.69 9.5,-15.4 14.51,-22.93 1.42,-2.21 3.28,-4.19 4.2,-6.67 0.58,-1.84 -0.57,-3.53 -1.76,-4.79 -15.07,-16.03 -29.47,-33.45 -37.46,-54.2 -0.77,-2.86 1.26,-5.35 2.97,-7.39 22.26,-26.6 50.97,-46.92 80.85,-64.1 38.51,-21.99 79.68,-38.91 121.46,-53.54 63.06,-21.79 127.9,-38.18 193.41,-50.65 8.64,-2.34 13.45,8.43 21.86,7.97 3.48,-0.69 6.21,-3.17 9.42,-4.53 78.73,-33.04 158.06,-65.18 240.08,-89.25 47.14,-13.94 95.02,-25.41 143.38,-34.27 C 871.32,317.54 912.06,311.92 953.03,309.02 m -104.1,42.01 c -42.1,5.88 -84.03,13.54 -124.97,25.11 -25.12,7.13 -50.34,14.07 -74.94,22.89 -39.36,14.13 -77.7,30.94 -115.66,48.44 -6.71,3 -13.23,6.48 -20.22,8.8 -1.95,0.66 -3.71,1.77 -5.41,2.91 2.05,2.51 5.43,2.6 8.37,3.25 26.37,4.92 52.56,10.83 79.07,14.95 15.5,2.23 31.19,3.91 46.87,3.4 3.29,0.08 4.16,-3.71 2.08,-5.84 -9.97,-13.69 -20.25,-27.15 -30.25,-40.81 -2.26,-3.37 1.08,-6.79 3.23,-9.18 3.1801,-3.03 5.19,-7.63 9.6,-9.08 12.67,-4.93 25.19,-10.25 37.87,-15.11 8.1,-0.82 16.29,-0.87 24.43,-1.24 -1.31,13.49 -2.72,26.97 -3.95,40.46 -4.65,4.11 -9.34,8.25 -14.71,11.42 -1.71,1.17 -4.01,2.41 -4.14,4.75 -0.07,2.55 2.22,4.17 3.8,5.85 4.87,4.44 8.15,10.23 11.99,15.51 14.01,0.05 27.95,-1.57 41.85,-3.18 42.97,-5.3 85.58,-13.04 128.34,-19.68 35.64,-5.51 71.3,-10.81 106.97,-16.04 28.92,-4.11 57.79,-8.59 86.7999,-11.99 3.4601,-0.46 7.4801,-2.61 7.5601,-6.55 2.58,-24.06 5.6799,-48.08 8.27,-72.13 0.73,-5.14 -5.4501,-4.69 -8.8,-4.98 -68.06,-3.11 -136.58,-2.1 -204.05,8.07 m 375.32,-6.18 c 1.02,1.53 2.2,3.01 3.77,4.03 14.6899,10.02 29.34,20.11 44.03,30.14 -15.7301,5.17 -31.37,10.6 -47.1801,15.52 -3.3199,1.07 -6.86,1.69 -9.84,3.57 -0.6901,2.56 2.5399,3.03 4.37,2.61 32.49,-4.85 64.96,-9.84 97.5,-14.31 1.99,-0.16 3.74,-1.16 5.35,-2.3 -1.65,-1.56 -3.46,-2.97 -5.59,-3.76 -28.3301,-11.38 -56.65,-22.77 -84.9601,-34.18 -2.3498,-1.02 -4.9398,-1.28 -7.4498,-1.32 m -123.71,6.32 c -0.1801,19.28 0.07,38.58 -0.53,57.87 0.01,2.57 0.01,5.75 2.3099,7.45 1.7201,1.21 3.8601,0.26 5.77,0.14 29.65,-4.8 59.4,-9.05 88.9301,-14.57 -9.6901,-14.75 -21.03,-28.31 -32.04,-42.06 -4.8099,-5.34 -12.53,-5.4 -19.09,-6.51 -13.28,-2 -26.55,-4.16 -39.9,-5.59 -2.29,-0.56 -5.46,0.53 -5.45,3.27 m 85.24,-2.12 c 0.37,2.6 2.49,4.24 4.23,5.98 7.73,7.59 15.3,15.34 23.21,22.74 1.0901,0.93 2.05,2.36 1.4,3.85 -1.89,4.03 -4.75,7.54 -6.4399,11.67 -0.67,1.7 -1.17,4.03 0.71,5.18 3.87,-1.69 5.9299,-5.74 8.9,-8.57 3.1,-4.01 7.52,-7.06 9.64,-11.77 -12.3301,-9.24 -24.8601,-18.22 -37.2301,-27.41 -1.25,-1.06 -2.87,-1.42 -4.42,-1.67 m -556.91,168.3 c -18.77,2.67 -37.45,6.06 -56.28,8.29 14.8199,-0.62 29.49,-3.19 44.24,-4.78 163.71,-19.84 327.43,-39.59 491.1199,-59.52 11.7101,-1.86 23.29,1.23 34.8301,2.78 25.47,3.88 50.9399,7.85 76.4199,11.74 2.26,0.32 5.39,1.19 5.4701,4.01 -1.12,7.05 -3.0701,13.96 -4.17,21.03 -2.0699,10.34 -2.29,21.2 -6.66,30.96 -13.09,24.15 -26.7,48.03 -39.9,72.13 -0.7699,1.48 -1.7599,2.88 -3.2999,3.63 -9.88,5.78 -19.72,11.66 -29.59,17.46 -1.52,0.99 -3.3601,1.02 -5.0901,1.04 -18.6499,0.13 -37.2999,0.38 -55.95,0.56 -9.3201,0.26 -18.67,-0.18 -27.96,0.66 -154.82,18.01 -309.64,35.97 -464.45,53.99 27.79,-1.04 55.58,-2.63 83.37,-3.84 126.03,-5.95 252.0601,-11.91 378.0901,-17.85 3.7799,-0.03 7.34,-1.45 10.9399,-2.44 22.6,-6.5 45.21,-12.99 67.8101,-19.49 20.09,-5.93 40.37,-11.2401 60.2999,-17.7 3.4501,-1.1 7.11,-1.26 10.59,-2.26 4.0901,-1.32 6.02,-5.44 8.25,-8.76 18.91,-29.1 37.8501,-58.18 56.91,-87.19 9.78,-14.82 19.35,-29.8 29.5701,-44.33 0.85,-1.29 1.59,-2.75 1.4199,-4.35 -2.46,-1.16 -5.22,-1.3 -7.83,-1.87 -48.53,-9.3 -97.0601,-18.59 -145.5601,-27.99 -5.7799,-1.16 -11.63,-2.54 -17.5599,-2 -165,25.35 -330.02,50.7 -495.03,76.09 M 401.52,503.84 c -35.83,4.58 -69.01,26.11 -87.64,57.07 -20.71,33.34 -23.5,76.88 -7.56,112.7 8.72,20.02 23.05,37.53 40.85,50.17 26.84,19.23 61.7,26.62 94.06,20.18 33.18,-6.29 63.18,-27.23 80.57,-56.17 20.1,-32.59 23.2,-74.81 8.38,-110.08 -8.06,-19.59 -21.45,-36.89 -38.22,-49.8 -25.35,-19.64 -58.69,-28.42 -90.44,-24.07 m -229.25,18.3 c -31.22,8.89 -61.29,23.59 -85.23,45.79 -3.43,3.33 -7.36,6.22 -10.04,10.25 2.2,2.02 5.24,1.38 7.91,1.09 6.18,-0.85 12.4,-1.25 18.6,-1.8 5.85,-5.89 12.26,-11.2 18.92,-16.16 27.53,-20.13 58.53,-34.94 90.04,-47.7 -13.57,1.93 -27.02,4.77 -40.2,8.53 M 74.5,621.99 c 9.39,23.45 18.94,46.83 28.28,70.3 -11.31,-22.67 -22.13,-45.57 -33.3,-68.31 -4.76,1.65 -9.45,3.49 -14.07,5.5 -1.89,0.93 -3.99,1.91 -5.11,3.81 -0.77,1.48 0.28,3.13 1.63,3.8 4.39,2.24 9.29,3.2599 13.72,5.41 2.75,4.59 4.92,9.54 7.66,14.16 5.34,9.64 2.56,21.15 -0.54,31.05 -1.67,5.84 -5.32,12.09 -2.7,18.21 1.65,3.91 6.29,4.15 9.93,4.37 10.36,0.45 20.78,-0.47 30.97,-2.3 6.85,-3.22 13.1,-7.63 19.73,-11.29 1.68,-1.2 4.69,-2.1 4.22,-4.71 -0.52,-2.68 -2.51,-4.74 -3.9,-7 -12.62,-19.01 -25.3,-37.98 -37.84,-57.04 -2.67,-3.73 -3.55,-10.43 -9.05,-10.86 -3.5,0.94 -6.42,3.29 -9.63,4.9 z"
     id="path2"
     style="fill:#808080" /><path
     inkscape:connector-curvature="0"
     d="m 1864.95,424.77 c 4.13,-0.96 8.4501,-2.33 12.7201,-1.35 2.7699,0.63 3.6,4.11 2.33,6.41 -6.99,13.98 -13.23,28.33 -19.49,42.65 -15.34,0.19 -30.6801,0.31 -46.02,0.46 3.53,-12.3 7.02,-24.62 10.49,-36.94 13.2799,-3.89 26.5599,-7.81 39.9699,-11.23 z"
     id="path4"
     style="fill:#808080" /><path
     inkscape:connector-curvature="0"
     d="m 1536.53,475.88 c 38.1799,-3.56 77.58,8.09 107.38,32.3 27.52,22 46.6799,54.1 53.01,88.77 7.38,38.83 -1.39,80.49 -24.12,112.87 -19.74,28.58 -49.8201,49.79 -83.4,58.7 -41.04,11.29 -86.78,3.96 -122.1,-19.85 -29.24,-19.43 -51.24,-49.51 -60.62,-83.38 -11.76,-41.13 -4.88,-87.21 18.83,-122.88 17.75,-27.06 44.53,-48.12 75.14,-58.71 11.58,-4.07 23.6601,-6.66 35.88,-7.82 m -3.01,27.93 c -5.9401,0.78 -11.8101,2.03 -17.5701,3.66 -33.5199,9.31 -62.3199,33.97 -76.83,65.57 -17.3,36.59 -14.61,81.73 7.05,115.93 19.24,31.25 53.33,52.78 89.87,56.4901 22.24,2.59 45.1599,-1.32 65.4299,-10.82 31.7001,-14.75 56.3401,-43.9 65.37,-77.72 6.8401,-24.56 5.62,-51.24 -3.2999,-75.12 -11.3401,-30.83 -35.87,-56.52 -66.15,-69.26 C 1577.39,504 1555.08,500.93 1533.52,503.81 Z"
     id="path6-1"
     style="fill:#808080" /><path
     inkscape:connector-curvature="0"
     d="m 1811.99,480.51 c 13.33,0.08 26.66,0.22 40,0.36 2.01,0.16 4.29,-0.09 6.11,1.04 0.87,1.02 0.4,2.4 0.25,3.59 -2.02,9.01 -2.27,18.27 -2.6899,27.46 -0.36,11.99 -0.36,23.99 -0.16,35.99 -8.17,-0.11 -16.33,-0.28 -24.49,-0.34 -2.65,-0.05 -5.39,0.13 -7.83,-1.01 -9.2201,-3.77 -18.51,-7.35 -27.7101,-11.17 5.5901,-18.61 11.02,-37.28 16.52,-55.92 z"
     id="path8-0"
     style="fill:#808080" /><path
     inkscape:connector-curvature="0"
     d="m 1541.4,512.54 c 21.75,-1.46 43.9,3.45 62.85,14.28 27.02,15.17 47.04,42.13 53.71,72.4 5.64,24.97 2.54,51.88 -8.99,74.78 -13.8099,28.01 -39.98,49.57 -70.14,57.69 -25.61,7.08 -53.74,4.74 -77.74,-6.7 -26.9,-12.59 -48.23,-36.44 -57.76,-64.57 -8.59,-24.96 -7.99,-52.96 1.7201,-77.52 10.63,-27.25 32.46,-49.87 59.36,-61.39 11.6799,-5.1 24.27,-8.1 36.9899,-8.97 z"
     id="path10-3"
     style="fill:#808080" /><path
     inkscape:connector-curvature="0"
     d="m 401.45,514.72 c 34.87,-5.37 71.86,7.05 96.34,32.46 14.2,14.57 24.35,33.09 28.83,52.95 5.06,21.93 3.32,45.37 -4.95,66.31 -10.97,28.06 -33.83,51.13 -61.79,62.35 -23.58,9.59 -50.46,10.71 -74.81,3.33 -30.44,-9.09 -56.4,-31.93 -69.24,-61.01 -15.5,-34.01 -12.36,-75.79 8.31,-106.97 17.12,-26.54 46.04,-45.04 77.31,-49.42 z"
     id="path12-4"
     style="fill:#808080" /></g></svg>